<svg width="4650" height="842" viewBox="0 0 4650 842" fill="none" xmlns="http://www.w3.org/2000/svg">
<path d="M201.727 176.054C278.554 176.054 321.335 219.958 321.335 308.977C321.335 397.625 279.029 440.778 201.727 440.778H165.608C88.3061 440.778 46 397.625 46 308.977C46 219.95 88.7727 176.054 165.608 176.054H201.727ZM165.703 222.3C114.765 222.3 92.3414 248.188 92.3414 308.977C92.3414 369.386 114.289 394.436 165.703 394.436H201.822C252.761 394.436 274.804 369.3 274.804 308.606C274.804 248.197 252.856 222.3 201.822 222.3H165.703ZM157.442 98V146.216H115.516V98H157.442ZM251.534 98V146.216H209.599V98H251.534Z" fill="#EAB320" stroke="#EAB320" stroke-width="2" stroke-miterlimit="10"/>
<path d="M589.999 233.646L465.328 523.8H420.585L459.426 433.182C435.879 433.182 427.627 425.768 420.585 407.666L351.164 233.551H395.068L457.447 387.679C460.169 395.093 462.139 396.311 470.02 396.311H475.559L545.732 233.551H589.999V233.646Z" fill="#EAB320" stroke="#EAB320" stroke-width="2" stroke-miterlimit="10"/>
<path d="M668.796 143.875V319.58H688.031C720.961 319.58 727.615 317.981 739.816 296.033L774.337 233.654H819.46L783.34 298.755C773.118 317.143 763.363 328.584 746.47 335.626C766.076 341.165 776.298 354.014 788.776 375.59L826.018 440.691H779.391L744.871 379.531C732.679 357.954 724.513 354.394 688.022 354.394H668.787V440.7H627.242V143.797L668.796 143.875Z" fill="#EAB320" stroke="#EAB320" stroke-width="2" stroke-miterlimit="10"/>
<path d="M895.811 233.646V357.565C895.811 381.864 913.819 400.338 946.749 400.338H980.518C1013.45 400.338 1031.09 381.95 1031.09 357.565V233.646H1071.89V359.164C1071.89 407.009 1041.31 440.683 982.117 440.683H943.656C884.466 440.683 853.885 406.914 853.885 359.164V233.646H895.811ZM936.622 155.601V203.817H894.688V155.601H936.622ZM1030.71 155.601V203.817H988.779V155.601H1030.71Z" fill="#EAB320" stroke="#EAB320" stroke-width="2" stroke-miterlimit="10"/>
<path d="M1372.26 233.646C1442.43 233.646 1476.96 266.948 1476.96 324.263V440.778H1435.02V324.263C1435.02 291.713 1416.17 273.696 1372.64 273.696H1324.05V440.769H1282.11V273.61H1177.05C1173.48 273.61 1171.98 275.58 1171.98 279.52V440.683H1130.43V265.824C1130.43 241.526 1138.68 233.646 1159.42 233.646H1372.26Z" fill="#EAB320" stroke="#EAB320" stroke-width="2" stroke-miterlimit="10"/>
<path d="M1688.31 176.054V283.936H1823.58V176.054H1870.29V440.778H1823.58V330.174H1688.31V440.778H1642.06V176.054H1688.31Z" fill="#595A5C"/>
<path d="M2064.39 233.646C2116.17 233.646 2136.52 262.636 2136.52 301.849V399.128C2136.52 428.957 2128.64 440.683 2093.75 440.683H1996.94C1947.87 440.683 1927.51 416.765 1927.51 377.552C1927.51 339.938 1946.37 317.981 1997.31 317.981H2095.71V302.315C2095.71 286.278 2086.71 273.705 2063.91 273.705H1939.99V233.741L2064.39 233.646ZM2095.72 389.744V350.903H1998.07C1976.12 350.903 1968.24 359.907 1968.24 375.202C1968.24 390.496 1976.49 400.338 1997.23 400.338H2084.29C2092.63 400.347 2095.72 397.158 2095.72 389.744Z" fill="#595A5C"/>
<path d="M2202.85 233.646V215.163C2202.85 161.036 2221.24 143.771 2264.01 143.771H2301.25V181.86H2272.64C2253.04 181.86 2244.78 189.741 2244.78 212.821V233.646H2302V273.61H2244.78V440.683H2202.85V273.61H2174.61V233.646H2202.85Z" fill="#595A5C"/>
<path d="M2483.15 233.646V273.61H2410.17C2391.78 273.61 2383.53 282.242 2383.53 300.25V440.683H2341.98V294.063C2341.98 252.509 2357.27 233.654 2398.07 233.654L2483.15 233.646Z" fill="#595A5C"/>
<path d="M2565.89 155.601V203.817H2523.96V155.601H2565.89ZM2565.51 233.646V440.683H2523.96V233.646H2565.51Z" fill="#595A5C"/>
<path d="M2841.59 233.646L2716.92 523.8H2672.17L2711.01 433.182C2687.47 433.182 2679.22 425.768 2672.17 407.666L2602.75 233.559H2646.66L2709.04 387.688C2711.76 395.102 2713.73 396.32 2721.61 396.32H2727.15L2797.32 233.559H2841.6V233.646H2841.59Z" fill="#595A5C"/>
<path d="M3011.38 233.646C3063.17 233.646 3083.52 262.636 3083.52 301.849V399.128C3083.52 428.957 3075.64 440.683 3040.74 440.683H2943.84C2894.87 440.683 2874.42 416.765 2874.42 377.552C2874.42 339.938 2893.27 317.981 2944.21 317.981H3042.61V302.315C3042.61 286.278 3033.61 273.705 3010.81 273.705H2886.89V233.741L3011.38 233.646ZM3042.81 389.744V350.903H2945.16C2923.21 350.903 2915.33 359.907 2915.33 375.202C2915.33 390.496 2923.58 400.338 2944.32 400.338H3031.38C3039.62 400.347 3042.81 397.158 3042.81 389.744Z" fill="#595A5C"/>
<path d="M3149.85 233.646V184.582H3191.78V233.646H3249V273.61H3191.78V371.641C3191.78 394.817 3200.03 402.602 3219.64 402.602H3248.25V440.596H3211.01C3168.23 440.596 3149.85 423.332 3149.85 369.205V273.515H3121.61V233.551L3149.85 233.646Z" fill="#595A5C"/>
<path d="M71.2922 545.074V569.744H49.9058V545.074H71.2922ZM71.007 584.943V690.76H49.8108V584.943H71.007Z" fill="#808386"/>
<path d="M160.035 584.943C195.869 584.943 213.315 601.923 213.315 631.19V690.665H191.928V631.19C191.928 614.582 182.268 605.301 160.035 605.301H125.419C123.639 605.301 122.792 606.33 122.792 608.3V690.665H101.587V601.361C101.587 588.979 105.813 584.943 116.407 584.943H160.035Z" fill="#808386"/>
<path d="M331.324 584.943V605.396H272.79C262.94 605.396 258.999 609.432 258.999 617.407C258.999 624.821 262.188 628.848 274.009 628.848H298.869C328.136 628.848 335.55 642.259 335.55 658.676C335.55 677.531 325.699 690.76 300.934 690.76H239.393V670.126H300.934C310.785 670.126 314.725 666.747 314.725 658.495C314.725 650.053 310.318 646.674 299.716 646.674H274.666C245.399 646.674 238.175 632.036 238.175 615.809C238.175 596.764 248.025 584.943 272.6 584.943H331.324ZM297.46 695.547V717.029C297.46 734.855 289.675 743.669 272.981 743.669H266.413V727.631H268.85C274.104 727.631 276.264 725.004 276.264 719.189V695.547H297.46Z" fill="#808386"/>
<path d="M428.327 584.943C454.777 584.943 465.198 599.762 465.198 619.844V669.564C465.198 684.763 461.163 690.769 443.337 690.769H393.807C368.757 690.769 358.344 678.577 358.344 658.495C358.344 639.26 367.91 628.01 393.988 628.01H444.27V620.034C444.27 611.782 439.673 605.396 428.042 605.396H364.721V584.943H428.327ZM444.27 664.682V644.885H394.368C383.109 644.885 379.169 649.482 379.169 657.268C379.169 665.053 383.394 670.117 393.988 670.117H438.454C442.68 670.031 444.27 668.432 444.27 664.682Z" fill="#808386"/>
<path d="M562.945 584.943C589.395 584.943 599.816 599.762 599.816 619.844V669.564C599.816 684.763 595.781 690.769 577.954 690.769H528.424C503.374 690.769 492.962 678.577 492.962 658.495C492.962 639.26 502.622 628.01 528.606 628.01H578.887V620.034C578.887 611.782 574.29 605.396 562.66 605.396H499.339V584.943H562.945ZM578.983 664.682V644.885H529.072C517.813 644.885 513.873 649.482 513.873 657.268C513.873 665.053 518.098 670.117 528.692 670.117H573.159C577.384 670.031 578.983 668.432 578.983 664.682Z" fill="#808386"/>
<path d="M633.671 584.943V559.902H655.057V584.952H684.324V605.405H655.057V655.497C655.057 667.317 659.283 671.353 669.315 671.353H683.952V690.769H664.908C643.046 690.769 633.671 681.955 633.671 654.278V605.405H619.223V584.952H633.671V584.943Z" fill="#808386"/>
<path d="M795.213 594.699C808.624 594.699 817.257 603.141 817.257 620.967C817.257 638.794 808.624 647.236 795.213 647.236H777.949C764.538 647.236 756.087 638.794 756.087 620.967C756.087 603.141 764.529 594.699 777.949 594.699H795.213Z" fill="#EAB320"/>
<path d="M967.254 584.943C993.704 584.943 1004.13 599.762 1004.13 619.844V669.564C1004.13 684.763 1000.09 690.769 982.264 690.769H932.734C907.684 690.769 897.271 678.577 897.271 658.495C897.271 639.26 906.932 628.01 932.915 628.01H983.197V620.034C983.197 611.782 978.6 605.396 966.969 605.396H903.649V584.943H967.254ZM983.301 664.682V644.885H933.391C922.132 644.885 918.191 649.482 918.191 657.268C918.191 665.053 922.417 670.117 933.01 670.117H977.477C981.702 670.031 983.301 668.432 983.301 664.682Z" fill="#808386"/>
<path d="M1055.44 539.077V690.769H1034.23V539.077H1055.44Z" fill="#808386"/>
<path d="M1089.68 584.943V559.902H1111.07V584.952H1140.33V605.405H1111.07V655.497C1111.07 667.317 1115.29 671.353 1125.32 671.353H1139.96V690.769H1120.92C1099.06 690.769 1089.68 681.955 1089.68 654.278V605.405H1075.23V584.952H1089.68V584.943Z" fill="#808386"/>
<path d="M1325.14 584.943L1261.44 733.161H1238.65L1258.45 686.915C1246.43 686.915 1242.22 683.07 1238.65 673.876L1203.19 584.943H1225.61L1257.5 663.645C1258.91 667.49 1259.94 668.052 1263.88 668.052H1266.7L1302.53 584.935L1325.14 584.943Z" fill="#808386"/>
<path d="M1411.91 584.943C1438.36 584.943 1448.78 599.762 1448.78 619.844V669.564C1448.78 684.763 1444.74 690.769 1426.92 690.769H1377.48C1352.43 690.769 1342.02 678.577 1342.02 658.495C1342.02 639.26 1351.68 628.01 1377.67 628.01H1427.95V620.034C1427.95 611.782 1423.35 605.396 1411.72 605.396H1348.4V584.943H1411.91ZM1427.95 664.682V644.885H1378.04C1366.78 644.885 1362.84 649.482 1362.84 657.268C1362.84 665.053 1367.06 670.117 1377.66 670.117H1422.12C1426.36 670.031 1427.95 668.432 1427.95 664.682Z" fill="#808386"/>
<path d="M1546.53 584.943C1574.57 584.943 1592.21 602.208 1592.21 637.852C1592.21 673.496 1574.57 690.76 1546.53 690.76H1499.62V733.256H1478.42V630.256C1478.42 599.771 1491.83 584.943 1517.25 584.943H1546.53ZM1499.62 670.031H1544.28C1562.67 670.031 1570.73 660.647 1570.73 637.757C1570.73 614.962 1562.75 605.301 1544.28 605.301H1523.46C1506.19 605.301 1499.63 612.897 1499.63 631.19V670.031H1499.62Z" fill="#808386"/>
<path d="M1638.92 584.943V690.76H1617.72V584.943H1638.92Z" fill="#808386"/>
<path d="M1759.56 594.699C1772.97 594.699 1781.6 603.141 1781.6 620.967C1781.6 638.794 1772.97 647.236 1759.56 647.236H1742.3C1728.88 647.236 1720.43 638.794 1720.43 620.967C1720.43 603.141 1728.88 594.699 1742.3 594.699H1759.56Z" fill="#EAB320"/>
<path d="M1885.17 539.077V584.952H1922.42C1958.06 584.952 1975.7 602.216 1975.7 631.198V690.674H1954.21V631.198C1954.21 614.97 1944.36 605.31 1922.32 605.31H1885.08V690.674H1863.97V538.982L1885.17 539.077Z" fill="#808386"/>
<path d="M2073.26 584.943C2099.71 584.943 2110.13 599.762 2110.13 619.844V669.564C2110.13 684.763 2106.1 690.769 2088.28 690.769H2038.84C2013.79 690.769 2003.38 678.577 2003.38 658.495C2003.38 639.26 2013.04 628.01 2039.03 628.01H2089.31V620.034C2089.31 611.782 2084.71 605.396 2073.08 605.396H2009.76V584.943H2073.26ZM2089.3 664.682V644.885H2039.39C2028.13 644.885 2024.19 649.482 2024.19 657.268C2024.19 665.053 2028.41 670.117 2039.01 670.117H2083.47C2087.71 670.031 2089.3 668.432 2089.3 664.682Z" fill="#808386"/>
<path d="M2144.08 584.943V575.559C2144.08 547.882 2153.47 539.068 2175.32 539.068H2194.36V558.485H2179.73C2169.69 558.485 2165.47 562.52 2165.47 574.341V584.943H2194.74V605.396H2165.47V690.76H2144.08V605.396H2129.63V584.943H2144.08Z" fill="#808386"/>
<path d="M2287.33 584.943V605.396H2250.09C2240.71 605.396 2236.49 609.803 2236.49 618.997V690.76H2215.28V615.809C2215.28 594.604 2223.07 584.943 2243.89 584.943H2287.33Z" fill="#808386"/>
<path d="M2329.54 545.074V569.744H2308.06V545.074H2329.54ZM2329.35 584.943V690.76H2308.15V584.943H2329.35Z" fill="#808386"/>
<path d="M2470.44 584.943L2406.75 733.161H2383.95L2403.75 686.915C2391.74 686.915 2387.52 683.07 2383.95 673.876L2348.49 584.943H2370.92L2402.81 663.645C2404.22 667.49 2405.25 668.052 2409.19 668.052H2412L2447.84 584.935L2470.44 584.943Z" fill="#808386"/>
<path d="M2557.21 584.943C2583.66 584.943 2594.09 599.762 2594.09 619.844V669.564C2594.09 684.763 2590.05 690.769 2572.23 690.769H2522.7C2497.65 690.769 2487.24 678.577 2487.24 658.495C2487.24 639.26 2496.81 628.01 2522.88 628.01H2573.17V620.034C2573.17 611.782 2568.57 605.396 2556.94 605.396H2493.62V584.943H2557.21ZM2573.17 664.682V644.885H2523.26C2512 644.885 2508.06 649.482 2508.06 657.268C2508.06 665.053 2512.28 670.117 2522.88 670.117H2567.34C2571.57 670.031 2573.17 668.432 2573.17 664.682Z" fill="#808386"/>
<path d="M2627.95 584.943V559.902H2649.34V584.952H2678.6V605.405H2649.34V655.497C2649.34 667.317 2653.56 671.353 2663.59 671.353H2678.23V690.769H2659.19C2637.32 690.769 2627.95 681.955 2627.95 654.278V605.405H2613.5V584.952H2627.95V584.943Z" fill="#808386"/>
<path d="M3778.3 604.45C3778.3 604.45 3866.51 801.01 4087.34 826.85C4087.34 826.85 3794.77 928.25 3778.3 604.45Z" fill="#EAB320"/>
<path d="M3963.66 50.1C3966.21 48.68 3612.68 416.62 3791.36 792.36C3791.36 792.36 3456.7 339.41 3963.66 50.1Z" fill="#EAB320"/>
<path d="M3883.26 690.81H4260.21C4260.28 690.81 4118.21 904.9 3883.26 690.81Z" fill="#EAB320"/>
<path d="M4193.72 0C4168.24 0 4143.34 2.34 4119.21 6.81V86.43C4143.2 80.89 4168.1 77.99 4193.72 77.99C4376.94 77.99 4526.03 227.08 4526.03 410.23C4526.03 526.04 4466.42 628.23 4376.3 687.76V151.36H4290.58V351.4V432.79V728.06V808.81C4470.18 765.17 4603.95 603.02 4603.95 410.15C4603.95 184 4419.87 0 4193.72 0Z" fill="#595A5C"/>
<path d="M3980.76 665.34H4066.84V432.87H4238.21V351.48H4066.84V277.32V92.18V11.49C4036.68 18.8 4007.87 29.44 3980.76 43V132.7V665.34Z" fill="#EAB320"/>
</svg>
