<?xml version="1.0" encoding="utf-8"?>
<!-- Generator: Adobe Illustrator 23.0.5, SVG Export Plug-In . SVG Version: 6.00 Build 0)  -->
<svg version="1.1" id="katman_1" xmlns="http://www.w3.org/2000/svg" xmlns:xlink="http://www.w3.org/1999/xlink" x="0px" y="0px"
	 viewBox="0 0 4816.86 841.89" style="enable-background:new 0 0 4816.86 841.89;" xml:space="preserve">
<style type="text/css">
	.st0{fill:#EAB320;stroke:#EAB320;stroke-width:2;stroke-miterlimit:10;}
	.st1{fill:#595A5C;}
	.st2{fill:#808386;}
	.st3{fill:#EAB320;}
</style>
<g>
	<g>
		<g>
			<path class="st0" d="M1279.77,144.77c88.91,0,138.42,50.81,138.42,153.83c0,102.59-48.96,152.53-138.42,152.53h-41.8
				c-89.46,0-138.42-49.94-138.42-152.53c0-103.03,49.5-153.83,138.42-153.83H1279.77z M1238.08,198.29
				c-58.95,0-84.9,29.96-84.9,100.31c0,69.91,25.4,98.9,84.9,98.9h41.8c58.95,0,84.46-29.09,84.46-99.33
				c0-69.91-25.4-99.88-84.46-99.88L1238.08,198.29L1238.08,198.29z M1228.53,54.44v55.8H1180v-55.8H1228.53z M1337.42,54.44v55.8
				h-48.53v-55.8H1337.42z"/>
			<path class="st0" d="M1729.11,211.42l-144.28,335.79h-51.78l44.94-104.87c-27.25,0-36.8-8.58-44.94-29.53l-80.34-201.49h50.81
				l72.19,178.37c3.15,8.58,5.43,9.99,14.55,9.99h6.41l81.21-188.36h51.24V211.42z"/>
			<path class="st0" d="M1820.31,107.53v203.34h22.26c38.11,0,45.81-1.85,59.93-27.25l39.95-72.19h52.22l-41.8,75.34
				c-11.83,21.28-23.12,34.52-42.67,42.67c22.69,6.41,34.52,21.28,48.96,46.25l43.1,75.34h-53.96l-39.95-70.78
				c-14.11-24.97-23.56-29.09-65.79-29.09h-22.26v99.88h-48.09v-343.6L1820.31,107.53L1820.31,107.53z"/>
			<path class="st0" d="M2083.03,211.42v143.41c0,28.12,20.84,49.5,58.95,49.5h39.08c38.11,0,58.52-21.28,58.52-49.5V211.42h47.22
				v145.26c0,55.37-35.39,94.34-103.89,94.34h-44.51c-68.5,0-103.89-39.08-103.89-94.34V211.42H2083.03z M2130.25,121.1v55.8h-48.53
				v-55.8H2130.25z M2239.14,121.1v55.8h-48.53v-55.8H2239.14z"/>
			<path class="st0" d="M2634.42,211.42c81.2,0,121.16,38.54,121.16,104.87v134.84h-48.53V316.3c0-37.67-21.82-58.52-72.19-58.52
				h-56.24v193.35h-48.53V257.67H2408.5c-4.13,0-5.86,2.28-5.86,6.84v186.51h-48.09V248.66c0-28.12,9.55-37.24,33.55-37.24H2634.42z
				"/>
			<path class="st1" d="M3000.17,144.77v124.85h156.55V144.77h54.06v306.36h-54.06v-128h-156.55v128h-53.52V144.77H3000.17z"/>
			<path class="st1" d="M3435.4,211.42c59.93,0,83.48,33.55,83.48,78.93v112.58c0,34.52-9.12,48.09-49.5,48.09h-112.04
				c-56.78,0-80.34-27.68-80.34-73.06c0-43.53,21.82-68.94,80.77-68.94h113.88v-18.13c0-18.56-10.42-33.11-36.8-33.11h-143.41
				v-46.25L3435.4,211.42L3435.4,211.42z M3471.66,392.07v-44.95h-113.01c-25.4,0-34.52,10.42-34.52,28.12
				c0,17.7,9.55,29.09,33.55,29.09h100.75C3468.07,404.34,3471.66,400.65,3471.66,392.07z"/>
			<path class="st1" d="M3595.63,211.42v-21.39c0-62.64,21.28-82.62,70.78-82.62h43.1v44.08h-33.11c-22.69,0-32.24,9.12-32.24,35.83
				v24.1h66.22v46.25h-66.22v193.35h-48.53V257.67h-32.68v-46.25H3595.63z"/>
			<path class="st1" d="M3920.02,211.42v46.25h-84.46c-21.28,0-30.83,9.99-30.83,30.83v162.52h-48.09V281.34
				c0-48.09,17.7-69.91,64.92-69.91L3920.02,211.42L3920.02,211.42z"/>
			<path class="st1" d="M4015.77,121.1v55.8h-48.53v-55.8H4015.77z M4015.34,211.42v239.6h-48.09v-239.6L4015.34,211.42
				L4015.34,211.42z"/>
			<path class="st1" d="M4334.84,211.42l-144.28,335.79h-51.78l44.95-104.87c-27.25,0-36.8-8.58-44.95-29.53l-80.34-201.49h50.81
				l72.19,178.37c3.15,8.58,5.43,9.99,14.55,9.99h6.4l81.21-188.36h51.24V211.42z"/>
			<path class="st1" d="M4531.34,211.42c59.93,0,83.48,33.55,83.48,78.93v112.58c0,34.52-9.12,48.09-49.5,48.09h-112.15
				c-56.67,0-80.34-27.68-80.34-73.06c0-43.53,21.82-68.94,80.77-68.94h113.88v-18.13c0-18.56-10.42-33.11-36.8-33.11h-143.41
				v-46.25L4531.34,211.42L4531.34,211.42z M4567.71,392.07v-44.95h-113.01c-25.4,0-34.52,10.42-34.52,28.12
				c0,17.7,9.55,29.09,33.55,29.09h100.75C4564.02,404.34,4567.71,400.65,4567.71,392.07z"/>
			<path class="st1" d="M4691.58,211.42v-56.78h48.53v56.78h66.22v46.25h-66.22v113.45c0,26.82,9.55,35.83,32.24,35.83h33.11v43.97
				h-43.1c-49.5,0-70.78-19.98-70.78-82.62V257.56h-32.68v-46.25L4691.58,211.42L4691.58,211.42z"/>
		</g>
	</g>
	<g>
		<path class="st2" d="M1799.46,567.84v28.55h-24.75v-28.55H1799.46z M1799.14,613.97v122.46h-24.54V613.97H1799.14z"/>
		<path class="st2" d="M1902.16,613.97c41.47,0,61.66,19.65,61.66,53.52v68.83h-24.75V667.5c0-19.22-11.18-29.96-36.91-29.96h-40.06
			c-2.06,0-3.04,1.19-3.04,3.47v95.32h-24.54V632.97c0-14.33,4.89-19,17.15-19H1902.16z"/>
		<path class="st2" d="M2100.4,613.97v23.67h-67.74c-11.4,0-15.96,4.67-15.96,13.9c0,8.58,3.69,13.24,17.37,13.24h28.77
			c33.87,0,42.45,15.52,42.45,34.52c0,21.82-11.4,37.13-40.06,37.13h-71.22v-23.88h71.22c11.4,0,15.96-3.91,15.96-13.46
			c0-9.77-5.1-13.68-17.37-13.68h-28.99c-33.87,0-42.23-16.94-42.23-35.72c0-22.04,11.4-35.72,39.84-35.72H2100.4z M2061.21,741.97
			v24.86c0,20.63-9.01,30.83-28.33,30.83h-7.6V779.1h2.82c6.08,0,8.58-3.04,8.58-9.77v-27.36L2061.21,741.97L2061.21,741.97z"/>
		<path class="st2" d="M2212.65,613.97c30.61,0,42.67,17.15,42.67,40.39v57.54c0,17.59-4.67,24.54-25.3,24.54h-57.32
			c-28.99,0-41.04-14.11-41.04-37.35c0-22.26,11.07-35.28,41.25-35.28h58.19v-9.23c0-9.55-5.32-16.94-18.78-16.94h-73.28v-23.67
			H2212.65z M2231.11,706.25v-22.91h-57.76c-13.03,0-17.59,5.32-17.59,14.33s4.89,14.87,17.15,14.87h51.46
			C2229.26,712.44,2231.11,710.6,2231.11,706.25z"/>
		<path class="st2" d="M2368.44,613.97c30.61,0,42.67,17.15,42.67,40.39v57.54c0,17.59-4.67,24.54-25.3,24.54h-57.32
			c-28.99,0-41.04-14.11-41.04-37.35c0-22.26,11.18-35.28,41.25-35.28h58.19v-9.23c0-9.55-5.32-16.94-18.78-16.94h-73.28v-23.67
			H2368.44z M2387,706.25v-22.91h-57.76c-13.03,0-17.59,5.32-17.59,14.33s4.89,14.87,17.15,14.87h51.46
			C2385.16,712.44,2387,710.6,2387,706.25z"/>
		<path class="st2" d="M2450.3,613.97v-28.99h24.75v28.99h33.87v23.67h-33.87v57.97c0,13.68,4.89,18.35,16.5,18.35h16.94v22.47
			h-22.04c-25.3,0-36.15-10.2-36.15-42.23v-56.56h-16.72v-23.67H2450.3z"/>
		<path class="st3" d="M2637.24,625.27c15.52,0,25.51,9.77,25.51,30.4c0,20.63-9.99,30.4-25.51,30.4h-19.98
			c-15.52,0-25.3-9.77-25.3-30.4c0-20.63,9.77-30.4,25.3-30.4H2637.24z"/>
		<path class="st2" d="M2836.35,613.97c30.61,0,42.67,17.15,42.67,40.39v57.54c0,17.59-4.67,24.54-25.3,24.54h-57.32
			c-28.99,0-41.04-14.11-41.04-37.35c0-22.26,11.18-35.28,41.25-35.28h58.19v-9.23c0-9.55-5.32-16.94-18.78-16.94h-73.28v-23.67
			H2836.35z M2854.91,706.25v-22.91h-57.76c-13.03,0-17.59,5.32-17.59,14.33s4.89,14.87,17.15,14.87h51.46
			C2853.06,712.44,2854.91,710.6,2854.91,706.25z"/>
		<path class="st2" d="M2938.4,560.89v175.55h-24.54V560.89H2938.4z"/>
		<path class="st2" d="M2978.02,613.97v-28.99h24.75v28.99h33.87v23.67h-33.87v57.97c0,13.68,4.89,18.35,16.5,18.35h16.94v22.47
			h-22.04c-25.3,0-36.15-10.2-36.15-42.23v-56.56h-16.72v-23.67H2978.02z"/>
		<path class="st2" d="M3250.51,613.97L3176.8,785.5h-26.38l22.91-53.52c-13.9,0-18.78-4.45-22.91-15.09l-41.04-102.92h25.95
			l36.91,91.08c1.63,4.45,2.82,5.1,7.38,5.1h3.26l41.47-96.19L3250.51,613.97L3250.51,613.97z"/>
		<path class="st2" d="M3350.93,613.97c30.61,0,42.67,17.15,42.67,40.39v57.54c0,17.59-4.67,24.54-25.3,24.54h-57.21
			c-28.99,0-41.04-14.11-41.04-37.35c0-22.26,11.18-35.28,41.25-35.28h58.19v-9.23c0-9.55-5.32-16.94-18.78-16.94h-73.28v-23.67
			H3350.93z M3369.5,706.25v-22.91h-57.76c-13.03,0-17.59,5.32-17.59,14.33s4.89,14.87,17.15,14.87h51.46
			C3367.65,712.44,3369.5,710.6,3369.5,706.25z"/>
		<path class="st2" d="M3506.72,613.97c32.46,0,52.87,19.98,52.87,61.23c0,41.25-20.41,61.23-52.87,61.23h-54.28v49.18h-24.54
			v-119.2c0-35.28,15.52-52.44,44.94-52.44H3506.72z M3452.44,712.44h51.68c21.28,0,30.61-10.86,30.61-37.35
			c0-26.38-9.23-37.56-30.61-37.56h-24.1c-19.98,0-27.57,8.79-27.57,29.96V712.44z"/>
		<path class="st2" d="M3613.66,613.97v122.46h-24.54V613.97H3613.66z"/>
		<path class="st3" d="M3753.27,625.27c15.52,0,25.51,9.77,25.51,30.4c0,20.63-9.99,30.4-25.51,30.4h-19.98
			c-15.52,0-25.3-9.77-25.3-30.4c0-20.63,9.77-30.4,25.3-30.4H3753.27z"/>
		<path class="st2" d="M3898.63,560.89v53.09h43.1c41.25,0,61.66,19.98,61.66,53.52v68.83h-24.86V667.5
			c0-18.78-11.4-29.96-36.91-29.96h-43.1v98.79h-24.43V560.78L3898.63,560.89L3898.63,560.89z"/>
		<path class="st2" d="M4116.3,613.97c30.61,0,42.67,17.15,42.67,40.39v57.54c0,17.59-4.67,24.54-25.29,24.54h-57.21
			c-28.99,0-41.04-14.11-41.04-37.35c0-22.26,11.18-35.28,41.25-35.28h58.19v-9.23c0-9.55-5.32-16.94-18.78-16.94h-73.28v-23.67
			H4116.3z M4134.87,706.25v-22.91h-57.76c-13.03,0-17.59,5.32-17.59,14.33s4.89,14.87,17.15,14.87h51.46
			C4133.02,712.44,4134.87,710.6,4134.87,706.25z"/>
		<path class="st2" d="M4198.27,613.97v-10.86c0-32.03,10.86-42.23,36.15-42.23h22.04v22.47h-16.94c-11.62,0-16.5,4.67-16.5,18.35
			v12.27h33.87v23.67h-33.87v98.79h-24.75v-98.79h-16.72v-23.67L4198.27,613.97L4198.27,613.97z"/>
		<path class="st2" d="M4364.04,613.97v23.67h-43.1c-10.86,0-15.74,5.1-15.74,15.74v83.05h-24.54v-86.74
			c0-24.54,9.01-35.72,33.11-35.72L4364.04,613.97L4364.04,613.97z"/>
		<path class="st2" d="M4412.9,567.84v28.55h-24.86v-28.55H4412.9z M4412.68,613.97v122.46h-24.54V613.97H4412.68z"/>
		<path class="st2" d="M4575.96,613.97l-73.71,171.53h-26.38l22.91-53.52c-13.9,0-18.78-4.45-22.91-15.09l-41.04-102.92h25.95
			l36.91,91.08c1.63,4.45,2.82,5.1,7.38,5.1h3.26l41.47-96.19L4575.96,613.97L4575.96,613.97z"/>
		<path class="st2" d="M4676.38,613.97c30.61,0,42.67,17.15,42.67,40.39v57.54c0,17.59-4.67,24.54-25.29,24.54h-57.32
			c-28.99,0-41.04-14.11-41.04-37.35c0-22.26,11.07-35.28,41.25-35.28h58.19v-9.23c0-9.55-5.32-16.94-18.78-16.94h-73.28v-23.67
			H4676.38z M4694.83,706.25v-22.91h-57.76c-13.03,0-17.59,5.32-17.59,14.33s4.89,14.87,17.15,14.87h51.46
			C4692.99,712.44,4694.83,710.6,4694.83,706.25z"/>
		<path class="st2" d="M4758.23,613.97v-28.99h24.75v28.99h33.87v23.67h-33.87v57.97c0,13.68,4.89,18.35,16.5,18.35h16.94v22.47
			h-22.04c-25.29,0-36.15-10.2-36.15-42.23v-56.56h-16.72v-23.67H4758.23z"/>
	</g>
</g>
<g>
	<g>
		<g>
			<path class="st3" d="M99.24,604.45c0,0,88.21,196.56,309.04,222.4C408.28,826.85,115.7,928.25,99.24,604.45z"/>
			<path class="st3" d="M284.59,50.1c2.55-1.42-350.98,366.52-172.3,742.26C112.3,792.36-222.36,339.41,284.59,50.1z"/>
			<path class="st3" d="M204.19,690.82h376.95C581.21,690.82,439.15,904.91,204.19,690.82z"/>
		</g>
	</g>
	<path id="XMLID_00000124152359501080385140000013363972076789809025_" class="st1" d="M514.65,0c-25.48,0-50.38,2.34-74.51,6.81
		v79.62c23.99-5.54,48.89-8.44,74.51-8.44c183.22,0,332.32,149.09,332.32,332.24c0,115.81-59.61,218-149.73,277.53v-536.4h-85.72
		V351.4v81.39v295.27v80.75c179.6-43.64,313.37-205.79,313.37-398.66C924.88,184,740.81,0,514.65,0z"/>
	<g>
		<g>
			<path class="st3" d="M301.69,665.34h86.08V432.87h171.37v-81.39H387.77v-74.16V92.18V11.5C357.61,18.8,328.8,29.45,301.69,43
				v89.7V665.34z"/>
		</g>
	</g>
</g>
</svg>
