<?xml version="1.0" encoding="utf-8"?>
<!-- Generator: Adobe Illustrator 23.0.5, SVG Export Plug-In . SVG Version: 6.00 Build 0)  -->
<svg version="1.1" id="Layer_1" xmlns="http://www.w3.org/2000/svg" xmlns:xlink="http://www.w3.org/1999/xlink" x="0px" y="0px"
	 viewBox="0 0 350.77 201.51" style="enable-background:new 0 0 350.77 201.51;" xml:space="preserve">
<style type="text/css">
	.st0{fill:#EBB320;stroke:#EBB320;stroke-width:2;stroke-miterlimit:10;}
	.st1{fill:#58595B;}
	.st2{fill:#808285;}
	.st3{fill:#EBB320;}
</style>
<g>
	<g>
		<path class="st0" d="M20.77,136.91c8.19,0,12.75,4.68,12.75,14.17c0,9.45-4.51,14.05-12.75,14.05h-3.85
			c-8.24,0-12.75-4.6-12.75-14.05c0-9.49,4.56-14.17,12.75-14.17H20.77z M16.93,141.84c-5.43,0-7.82,2.76-7.82,9.24
			c0,6.44,2.34,9.11,7.82,9.11h3.85c5.43,0,7.78-2.68,7.78-9.15c0-6.44-2.34-9.2-7.78-9.2L16.93,141.84L16.93,141.84z M16.05,128.59
			v5.14h-4.47v-5.14H16.05z M26.08,128.59v5.14h-4.47v-5.14H26.08z"/>
		<path class="st0" d="M62.16,143.05l-13.29,30.93H44.1l4.14-9.66c-2.51,0-3.39-0.79-4.14-2.72l-7.4-18.56h4.68l6.65,16.43
			c0.29,0.79,0.5,0.92,1.34,0.92h0.59l7.48-17.35h4.72V143.05z"/>
		<path class="st0" d="M70.56,133.48v18.73h2.05c3.51,0,4.22-0.17,5.52-2.51l3.68-6.65h4.81l-3.85,6.94
			c-1.09,1.96-2.13,3.18-3.93,3.93c2.09,0.59,3.18,1.96,4.51,4.26l3.97,6.94h-4.97l-3.68-6.52c-1.3-2.3-2.17-2.68-6.06-2.68h-2.05
			v9.2h-4.43v-31.65L70.56,133.48L70.56,133.48z"/>
		<path class="st0" d="M94.76,143.05v13.21c0,2.59,1.92,4.56,5.43,4.56h3.6c3.51,0,5.39-1.96,5.39-4.56v-13.21h4.35v13.38
			c0,5.1-3.26,8.69-9.57,8.69h-4.1c-6.31,0-9.57-3.6-9.57-8.69v-13.38H94.76z M99.11,134.73v5.14h-4.47v-5.14H99.11z M109.14,134.73
			v5.14h-4.47v-5.14H109.14z"/>
		<path class="st0" d="M145.55,143.05c7.48,0,11.16,3.55,11.16,9.66v12.42h-4.47v-12.42c0-3.47-2.01-5.39-6.65-5.39h-5.18v17.81
			h-4.47v-17.82h-11.2c-0.38,0-0.54,0.21-0.54,0.63v17.18h-4.43v-18.64c0-2.59,0.88-3.43,3.09-3.43H145.55z"/>
		<path class="st1" d="M179.24,136.91v11.5h14.42v-11.5h4.98v28.22h-4.98v-11.79h-14.42v11.79h-4.93v-28.22H179.24z"/>
		<path class="st1" d="M219.33,143.05c5.52,0,7.69,3.09,7.69,7.27v10.37c0,3.18-0.84,4.43-4.56,4.43h-10.32
			c-5.23,0-7.4-2.55-7.4-6.73c0-4.01,2.01-6.35,7.44-6.35h10.49v-1.67c0-1.71-0.96-3.05-3.39-3.05h-13.21v-4.26L219.33,143.05
			L219.33,143.05z M222.67,159.69v-4.14h-10.41c-2.34,0-3.18,0.96-3.18,2.59c0,1.63,0.88,2.68,3.09,2.68h9.28
			C222.34,160.82,222.67,160.48,222.67,159.69z"/>
		<path class="st1" d="M234.09,143.05v-1.97c0-5.77,1.96-7.61,6.52-7.61h3.97v4.06h-3.05c-2.09,0-2.97,0.84-2.97,3.3v2.22h6.1v4.26
			h-6.1v17.81h-4.47v-17.81h-3.01v-4.26H234.09z"/>
		<path class="st1" d="M263.97,143.05v4.26h-7.78c-1.96,0-2.84,0.92-2.84,2.84v14.97h-4.43v-15.63c0-4.43,1.63-6.44,5.98-6.44
			L263.97,143.05L263.97,143.05z"/>
		<path class="st1" d="M272.79,134.73v5.14h-4.47v-5.14H272.79z M272.75,143.05v22.07h-4.43v-22.07L272.75,143.05L272.75,143.05z"/>
		<path class="st1" d="M302.18,143.05l-13.29,30.93h-4.77l4.14-9.66c-2.51,0-3.39-0.79-4.14-2.72l-7.4-18.56h4.68l6.65,16.43
			c0.29,0.79,0.5,0.92,1.34,0.92h0.59l7.48-17.35h4.72V143.05z"/>
		<path class="st1" d="M320.28,143.05c5.52,0,7.69,3.09,7.69,7.27v10.37c0,3.18-0.84,4.43-4.56,4.43h-10.33
			c-5.22,0-7.4-2.55-7.4-6.73c0-4.01,2.01-6.35,7.44-6.35h10.49v-1.67c0-1.71-0.96-3.05-3.39-3.05h-13.21v-4.26L320.28,143.05
			L320.28,143.05z M323.63,159.69v-4.14h-10.41c-2.34,0-3.18,0.96-3.18,2.59c0,1.63,0.88,2.68,3.09,2.68h9.28
			C323.29,160.82,323.63,160.48,323.63,159.69z"/>
		<path class="st1" d="M335.04,143.05v-5.23h4.47v5.23h6.1v4.26h-6.1v10.45c0,2.47,0.88,3.3,2.97,3.3h3.05v4.05h-3.97
			c-4.56,0-6.52-1.84-6.52-7.61v-10.2h-3.01v-4.26L335.04,143.05L335.04,143.05z"/>
	</g>
</g>
<g>
	<path class="st2" d="M68.64,175.88v2.63h-2.28v-2.63H68.64z M68.61,180.13v11.28h-2.26v-11.28H68.61z"/>
	<path class="st2" d="M78.1,180.13c3.82,0,5.68,1.81,5.68,4.93v6.34H81.5v-6.34c0-1.77-1.03-2.76-3.4-2.76h-3.69
		c-0.19,0-0.28,0.11-0.28,0.32v8.78h-2.26v-9.52c0-1.32,0.45-1.75,1.58-1.75H78.1z"/>
	<path class="st2" d="M96.36,180.13v2.18h-6.24c-1.05,0-1.47,0.43-1.47,1.28c0,0.79,0.34,1.22,1.6,1.22h2.65
		c3.12,0,3.91,1.43,3.91,3.18c0,2.01-1.05,3.42-3.69,3.42h-6.56v-2.2h6.56c1.05,0,1.47-0.36,1.47-1.24c0-0.9-0.47-1.26-1.6-1.26
		h-2.67c-3.12,0-3.89-1.56-3.89-3.29c0-2.03,1.05-3.29,3.67-3.29H96.36z M92.75,191.92v2.29c0,1.9-0.83,2.84-2.61,2.84h-0.7v-1.71
		h0.26c0.56,0,0.79-0.28,0.79-0.9v-2.52L92.75,191.92L92.75,191.92z"/>
	<path class="st2" d="M106.7,180.13c2.82,0,3.93,1.58,3.93,3.72v5.3c0,1.62-0.43,2.26-2.33,2.26h-5.28c-2.67,0-3.78-1.3-3.78-3.44
		c0-2.05,1.02-3.25,3.8-3.25h5.36v-0.85c0-0.88-0.49-1.56-1.73-1.56h-6.75v-2.18H106.7z M108.4,188.63v-2.11h-5.32
		c-1.2,0-1.62,0.49-1.62,1.32s0.45,1.37,1.58,1.37h4.74C108.23,189.2,108.4,189.03,108.4,188.63z"/>
	<path class="st2" d="M121.05,180.13c2.82,0,3.93,1.58,3.93,3.72v5.3c0,1.62-0.43,2.26-2.33,2.26h-5.28c-2.67,0-3.78-1.3-3.78-3.44
		c0-2.05,1.03-3.25,3.8-3.25h5.36v-0.85c0-0.88-0.49-1.56-1.73-1.56h-6.75v-2.18H121.05z M122.76,188.63v-2.11h-5.32
		c-1.2,0-1.62,0.49-1.62,1.32s0.45,1.37,1.58,1.37h4.74C122.59,189.2,122.76,189.03,122.76,188.63z"/>
	<path class="st2" d="M128.59,180.13v-2.67h2.28v2.67h3.12v2.18h-3.12v5.34c0,1.26,0.45,1.69,1.52,1.69h1.56v2.07h-2.03
		c-2.33,0-3.33-0.94-3.33-3.89v-5.21h-1.54v-2.18H128.59z"/>
	<path class="st3" d="M145.81,181.17c1.43,0,2.35,0.9,2.35,2.8c0,1.9-0.92,2.8-2.35,2.8h-1.84c-1.43,0-2.33-0.9-2.33-2.8
		c0-1.9,0.9-2.8,2.33-2.8H145.81z"/>
	<path class="st2" d="M164.15,180.13c2.82,0,3.93,1.58,3.93,3.72v5.3c0,1.62-0.43,2.26-2.33,2.26h-5.28c-2.67,0-3.78-1.3-3.78-3.44
		c0-2.05,1.03-3.25,3.8-3.25h5.36v-0.85c0-0.88-0.49-1.56-1.73-1.56h-6.75v-2.18H164.15z M165.86,188.63v-2.11h-5.32
		c-1.2,0-1.62,0.49-1.62,1.32s0.45,1.37,1.58,1.37h4.74C165.69,189.2,165.86,189.03,165.86,188.63z"/>
	<path class="st2" d="M173.55,175.24v16.17h-2.26v-16.17H173.55z"/>
	<path class="st2" d="M177.2,180.13v-2.67h2.28v2.67h3.12v2.18h-3.12v5.34c0,1.26,0.45,1.69,1.52,1.69h1.56v2.07h-2.03
		c-2.33,0-3.33-0.94-3.33-3.89v-5.21h-1.54v-2.18H177.2z"/>
	<path class="st2" d="M202.3,180.13l-6.79,15.8h-2.43l2.11-4.93c-1.28,0-1.73-0.41-2.11-1.39l-3.78-9.48h2.39l3.4,8.39
		c0.15,0.41,0.26,0.47,0.68,0.47h0.3l3.82-8.86L202.3,180.13L202.3,180.13z"/>
	<path class="st2" d="M211.55,180.13c2.82,0,3.93,1.58,3.93,3.72v5.3c0,1.62-0.43,2.26-2.33,2.26h-5.27c-2.67,0-3.78-1.3-3.78-3.44
		c0-2.05,1.03-3.25,3.8-3.25h5.36v-0.85c0-0.88-0.49-1.56-1.73-1.56h-6.75v-2.18H211.55z M213.26,188.63v-2.11h-5.32
		c-1.2,0-1.62,0.49-1.62,1.32s0.45,1.37,1.58,1.37h4.74C213.09,189.2,213.26,189.03,213.26,188.63z"/>
	<path class="st2" d="M225.9,180.13c2.99,0,4.87,1.84,4.87,5.64s-1.88,5.64-4.87,5.64h-5v4.53h-2.26v-10.98
		c0-3.25,1.43-4.83,4.14-4.83H225.9z M220.9,189.2h4.76c1.96,0,2.82-1,2.82-3.44c0-2.43-0.85-3.46-2.82-3.46h-2.22
		c-1.84,0-2.54,0.81-2.54,2.76V189.2z"/>
	<path class="st2" d="M235.75,180.13v11.28h-2.26v-11.28H235.75z"/>
	<path class="st3" d="M248.61,181.17c1.43,0,2.35,0.9,2.35,2.8c0,1.9-0.92,2.8-2.35,2.8h-1.84c-1.43,0-2.33-0.9-2.33-2.8
		c0-1.9,0.9-2.8,2.33-2.8H248.61z"/>
	<path class="st2" d="M262,175.24v4.89h3.97c3.8,0,5.68,1.84,5.68,4.93v6.34h-2.29v-6.34c0-1.73-1.05-2.76-3.4-2.76h-3.97v9.1h-2.25
		v-16.17L262,175.24L262,175.24z"/>
	<path class="st2" d="M282.05,180.13c2.82,0,3.93,1.58,3.93,3.72v5.3c0,1.62-0.43,2.26-2.33,2.26h-5.27c-2.67,0-3.78-1.3-3.78-3.44
		c0-2.05,1.03-3.25,3.8-3.25h5.36v-0.85c0-0.88-0.49-1.56-1.73-1.56h-6.75v-2.18H282.05z M283.76,188.63v-2.11h-5.32
		c-1.2,0-1.62,0.49-1.62,1.32s0.45,1.37,1.58,1.37h4.74C283.59,189.2,283.76,189.03,283.76,188.63z"/>
	<path class="st2" d="M289.6,180.13v-1c0-2.95,1-3.89,3.33-3.89h2.03v2.07h-1.56c-1.07,0-1.52,0.43-1.52,1.69v1.13H295v2.18h-3.12
		v9.1h-2.28v-9.1h-1.54v-2.18L289.6,180.13L289.6,180.13z"/>
	<path class="st2" d="M304.87,180.13v2.18h-3.97c-1,0-1.45,0.47-1.45,1.45v7.65h-2.26v-7.99c0-2.26,0.83-3.29,3.05-3.29
		L304.87,180.13L304.87,180.13z"/>
	<path class="st2" d="M309.37,175.88v2.63h-2.29v-2.63H309.37z M309.35,180.13v11.28h-2.26v-11.28H309.35z"/>
	<path class="st2" d="M324.39,180.13l-6.79,15.8h-2.43l2.11-4.93c-1.28,0-1.73-0.41-2.11-1.39l-3.78-9.48h2.39l3.4,8.39
		c0.15,0.41,0.26,0.47,0.68,0.47h0.3l3.82-8.86L324.39,180.13L324.39,180.13z"/>
	<path class="st2" d="M333.64,180.13c2.82,0,3.93,1.58,3.93,3.72v5.3c0,1.62-0.43,2.26-2.33,2.26h-5.28c-2.67,0-3.78-1.3-3.78-3.44
		c0-2.05,1.02-3.25,3.8-3.25h5.36v-0.85c0-0.88-0.49-1.56-1.73-1.56h-6.75v-2.18H333.64z M335.34,188.63v-2.11h-5.32
		c-1.2,0-1.62,0.49-1.62,1.32s0.45,1.37,1.58,1.37h4.74C335.17,189.2,335.34,189.03,335.34,188.63z"/>
	<path class="st2" d="M341.18,180.13v-2.67h2.28v2.67h3.12v2.18h-3.12v5.34c0,1.26,0.45,1.69,1.52,1.69h1.56v2.07h-2.03
		c-2.33,0-3.33-0.94-3.33-3.89v-5.21h-1.54v-2.18H341.18z"/>
</g>
<g>
	<g>
		<g>
			<path class="st3" d="M122.81,89.65c0,0,12.43,27.7,43.55,31.34C166.36,120.99,125.13,135.28,122.81,89.65z"/>
			<path class="st3" d="M148.93,11.53c0.36-0.2-49.46,51.65-24.28,104.6C124.65,116.13,77.49,52.3,148.93,11.53z"/>
			<path class="st3" d="M137.6,101.82h53.12C190.73,101.82,170.71,131.99,137.6,101.82z"/>
		</g>
	</g>
	<path id="XMLID_00000124152359501080385140000013363972076789809025_" class="st1" d="M181.35,4.47c-3.59,0-7.1,0.33-10.5,0.96
		v11.22c3.38-0.78,6.89-1.19,10.5-1.19c25.82,0,46.83,21.01,46.83,46.82c0,16.32-8.4,30.72-21.1,39.11V25.8H195v28.19v11.47v41.61
		v11.38c25.31-6.15,44.16-29,44.16-56.18C239.16,30.4,213.22,4.47,181.35,4.47z"/>
	<g>
		<g>
			<path class="st3" d="M151.34,98.23h12.13V65.47h24.15V54h-24.15V43.55V17.46V6.09c-4.25,1.03-8.31,2.53-12.13,4.44v12.64V98.23z"
				/>
		</g>
	</g>
</g>
</svg>
