<?xml version="1.0" encoding="utf-8"?>
<!-- Generator: Adobe Illustrator 23.0.5, SVG Export Plug-In . SVG Version: 6.00 Build 0)  -->
<svg version="1.1" id="katman_1" xmlns="http://www.w3.org/2000/svg" xmlns:xlink="http://www.w3.org/1999/xlink" x="0px" y="0px"
	 viewBox="0 0 4832.13 841.89" style="enable-background:new 0 0 4832.13 841.89;" xml:space="preserve">
<style type="text/css">
	.st0{fill:#EAB320;stroke:#EAB320;stroke-width:2;stroke-miterlimit:10;}
	.st1{fill:#595A5C;}
	.st2{fill:#808386;}
	.st3{fill:#EAB320;}
</style>
<g>
	<g>
		<path class="st0" d="M185.66,142.18c88.91,0,138.42,50.81,138.42,153.83c0,102.59-48.96,152.53-138.42,152.53h-41.8
			C54.4,448.54,5.44,398.6,5.44,296.01c0-103.03,49.5-153.83,138.42-153.83H185.66z M143.97,195.7c-58.95,0-84.9,29.96-84.9,100.31
			c0,69.91,25.4,98.9,84.9,98.9h41.8c58.95,0,84.46-29.09,84.46-99.33c0-69.91-25.4-99.88-84.46-99.88L143.97,195.7L143.97,195.7z
			 M134.41,51.85v55.8H85.89v-55.8H134.41z M243.3,51.85v55.8h-48.53v-55.8H243.3z"/>
		<path class="st0" d="M635,208.83L490.72,544.62h-51.78l44.95-104.87c-27.25,0-36.8-8.58-44.95-29.53L358.6,208.72h50.81
			l72.19,178.37c3.15,8.58,5.43,9.99,14.55,9.99h6.41l81.21-188.36H635V208.83z"/>
		<path class="st0" d="M726.19,104.94v203.34h22.26c38.11,0,45.81-1.85,59.93-27.25l39.95-72.19h52.22l-41.8,75.34
			c-11.83,21.28-23.12,34.52-42.67,42.67c22.69,6.41,34.52,21.28,48.96,46.25l43.1,75.34h-53.96l-39.95-70.78
			c-14.11-24.97-23.56-29.09-65.79-29.09h-22.26v99.88H678.1v-343.6L726.19,104.94L726.19,104.94z"/>
		<path class="st0" d="M988.91,208.83v143.41c0,28.12,20.84,49.5,58.95,49.5h39.08c38.11,0,58.52-21.28,58.52-49.5V208.83h47.22
			v145.26c0,55.37-35.39,94.34-103.89,94.34h-44.51c-68.5,0-103.89-39.08-103.89-94.34V208.83H988.91z M1036.14,118.51v55.8h-48.53
			v-55.8H1036.14z M1145.03,118.51v55.8h-48.53v-55.8H1145.03z"/>
		<path class="st0" d="M1540.3,208.83c81.2,0,121.16,38.54,121.16,104.87v134.84h-48.53V313.7c0-37.67-21.82-58.52-72.19-58.52
			h-56.24v193.35h-48.53V255.08h-121.59c-4.13,0-5.86,2.28-5.86,6.84v186.51h-48.09V246.07c0-28.12,9.55-37.24,33.55-37.24H1540.3z"
			/>
		<path class="st1" d="M1906.05,142.18v124.85h156.55V142.18h54.06v306.36h-54.06v-128h-156.55v128h-53.52V142.18H1906.05z"/>
		<path class="st1" d="M2341.28,208.83c59.93,0,83.48,33.55,83.48,78.93v112.58c0,34.52-9.12,48.09-49.5,48.09h-112.04
			c-56.78,0-80.34-27.68-80.34-73.06c0-43.53,21.82-68.94,80.77-68.94h113.88V288.3c0-18.56-10.42-33.11-36.8-33.11h-143.41v-46.25
			L2341.28,208.83L2341.28,208.83z M2377.54,389.48v-44.95h-113.01c-25.4,0-34.52,10.42-34.52,28.12c0,17.7,9.55,29.09,33.55,29.09
			h100.75C2373.96,401.75,2377.54,398.06,2377.54,389.48z"/>
		<path class="st1" d="M2501.52,208.83v-21.39c0-62.64,21.28-82.62,70.78-82.62h43.1v44.08h-33.11c-22.69,0-32.24,9.12-32.24,35.83
			v24.1h66.22v46.25h-66.22v193.35h-48.53V255.08h-32.68v-46.25H2501.52z"/>
		<path class="st1" d="M2825.91,208.83v46.25h-84.46c-21.28,0-30.83,9.99-30.83,30.83v162.52h-48.09V278.75
			c0-48.09,17.7-69.91,64.92-69.91L2825.91,208.83L2825.91,208.83z"/>
		<path class="st1" d="M2921.66,118.51v55.8h-48.53v-55.8H2921.66z M2921.22,208.83v239.6h-48.09v-239.6L2921.22,208.83
			L2921.22,208.83z"/>
		<path class="st1" d="M3240.72,208.83l-144.28,335.79h-51.78l44.95-104.87c-27.25,0-36.8-8.58-44.95-29.53l-80.34-201.49h50.81
			l72.19,178.37c3.15,8.58,5.43,9.99,14.55,9.99h6.41l81.21-188.36h51.24V208.83z"/>
		<path class="st1" d="M3437.22,208.83c59.93,0,83.48,33.55,83.48,78.93v112.58c0,34.52-9.12,48.09-49.5,48.09h-112.15
			c-56.67,0-80.34-27.68-80.34-73.06c0-43.53,21.82-68.94,80.77-68.94h113.88V288.3c0-18.56-10.42-33.11-36.8-33.11h-143.41v-46.25
			L3437.22,208.83L3437.22,208.83z M3473.59,389.48v-44.95h-113.01c-25.4,0-34.52,10.42-34.52,28.12c0,17.7,9.55,29.09,33.55,29.09
			h100.75C3469.9,401.75,3473.59,398.06,3473.59,389.48z"/>
		<path class="st1" d="M3597.46,208.83v-56.78h48.53v56.78h66.22v46.25h-66.22v113.45c0,26.82,9.55,35.83,32.24,35.83h33.11v43.97
			h-43.1c-49.5,0-70.78-19.98-70.78-82.62V254.97h-32.68v-46.25L3597.46,208.83L3597.46,208.83z"/>
	</g>
</g>
<g>
	<path class="st2" d="M34.71,569.24v28.55H9.96v-28.55H34.71z M34.38,615.38v122.46H9.85V615.38H34.38z"/>
	<path class="st2" d="M137.41,615.38c41.47,0,61.66,19.65,61.66,53.52v68.83h-24.75v-68.83c0-19.22-11.18-29.96-36.91-29.96H97.35
		c-2.06,0-3.04,1.19-3.04,3.47v95.32H69.77V634.38c0-14.33,4.89-19,17.15-19H137.41z"/>
	<path class="st2" d="M335.64,615.38v23.67H267.9c-11.4,0-15.96,4.67-15.96,13.9c0,8.58,3.69,13.24,17.37,13.24h28.77
		c33.87,0,42.45,15.52,42.45,34.52c0,21.82-11.4,37.13-40.06,37.13h-71.22v-23.88h71.22c11.4,0,15.96-3.91,15.96-13.46
		c0-9.77-5.1-13.68-17.37-13.68h-28.99c-33.87,0-42.23-16.94-42.23-35.72c0-22.04,11.4-35.72,39.84-35.72H335.64z M296.45,743.38
		v24.86c0,20.63-9.01,30.83-28.33,30.83h-7.6v-18.56h2.82c6.08,0,8.58-3.04,8.58-9.77v-27.36L296.45,743.38L296.45,743.38z"/>
	<path class="st2" d="M447.9,615.38c30.61,0,42.67,17.15,42.67,40.39v57.54c0,17.59-4.67,24.54-25.3,24.54h-57.32
		c-28.99,0-41.04-14.11-41.04-37.35c0-22.26,11.07-35.28,41.25-35.28h58.19v-9.23c0-9.55-5.32-16.94-18.78-16.94h-73.28v-23.67
		H447.9z M466.35,707.66v-22.91H408.6c-13.03,0-17.59,5.32-17.59,14.33s4.89,14.87,17.15,14.87h51.46
		C464.51,713.85,466.35,712,466.35,707.66z"/>
	<path class="st2" d="M603.69,615.38c30.61,0,42.67,17.15,42.67,40.39v57.54c0,17.59-4.67,24.54-25.3,24.54h-57.32
		c-28.99,0-41.04-14.11-41.04-37.35c0-22.26,11.18-35.28,41.25-35.28h58.19v-9.23c0-9.55-5.32-16.94-18.78-16.94h-73.28v-23.67
		H603.69z M622.25,707.66v-22.91h-57.76c-13.03,0-17.59,5.32-17.59,14.33s4.89,14.87,17.15,14.87h51.46
		C620.4,713.85,622.25,712,622.25,707.66z"/>
	<path class="st2" d="M685.54,615.38V586.4h24.75v28.99h33.87v23.67h-33.87v57.97c0,13.68,4.89,18.35,16.5,18.35h16.94v22.47h-22.04
		c-25.3,0-36.15-10.2-36.15-42.23v-56.56h-16.72v-23.67H685.54z"/>
	<path class="st3" d="M872.49,626.67c15.52,0,25.51,9.77,25.51,30.4c0,20.63-9.99,30.4-25.51,30.4h-19.98
		c-15.52,0-25.3-9.77-25.3-30.4c0-20.63,9.77-30.4,25.3-30.4H872.49z"/>
	<path class="st2" d="M1071.59,615.38c30.61,0,42.67,17.15,42.67,40.39v57.54c0,17.59-4.67,24.54-25.3,24.54h-57.32
		c-28.99,0-41.04-14.11-41.04-37.35c0-22.26,11.18-35.28,41.25-35.28h58.19v-9.23c0-9.55-5.32-16.94-18.78-16.94h-73.28v-23.67
		H1071.59z M1090.16,707.66v-22.91h-57.76c-13.03,0-17.59,5.32-17.59,14.33s4.89,14.87,17.15,14.87h51.46
		C1088.31,713.85,1090.16,712,1090.16,707.66z"/>
	<path class="st2" d="M1173.64,562.3v175.55h-24.54V562.3H1173.64z"/>
	<path class="st2" d="M1213.27,615.38V586.4h24.75v28.99h33.87v23.67h-33.87v57.97c0,13.68,4.89,18.35,16.5,18.35h16.94v22.47
		h-22.04c-25.3,0-36.15-10.2-36.15-42.23v-56.56h-16.72v-23.67H1213.27z"/>
	<path class="st2" d="M1485.76,615.38l-73.71,171.53h-26.38l22.91-53.52c-13.9,0-18.78-4.45-22.91-15.09l-41.04-102.92h25.95
		l36.91,91.08c1.63,4.45,2.82,5.1,7.38,5.1h3.26l41.47-96.19L1485.76,615.38L1485.76,615.38z"/>
	<path class="st2" d="M1586.18,615.38c30.61,0,42.67,17.15,42.67,40.39v57.54c0,17.59-4.67,24.54-25.3,24.54h-57.21
		c-28.99,0-41.04-14.11-41.04-37.35c0-22.26,11.18-35.28,41.25-35.28h58.19v-9.23c0-9.55-5.32-16.94-18.78-16.94h-73.28v-23.67
		H1586.18z M1604.74,707.66v-22.91h-57.76c-13.03,0-17.59,5.32-17.59,14.33s4.89,14.87,17.15,14.87h51.46
		C1602.9,713.85,1604.74,712,1604.74,707.66z"/>
	<path class="st2" d="M1741.97,615.38c32.46,0,52.87,19.98,52.87,61.23c0,41.25-20.41,61.23-52.87,61.23h-54.28v49.18h-24.54v-119.2
		c0-35.28,15.52-52.44,44.94-52.44H1741.97z M1687.69,713.85h51.68c21.28,0,30.61-10.86,30.61-37.35c0-26.38-9.23-37.56-30.61-37.56
		h-24.1c-19.98,0-27.57,8.79-27.57,29.96V713.85z"/>
	<path class="st2" d="M1848.9,615.38v122.46h-24.54V615.38H1848.9z"/>
	<path class="st3" d="M1988.51,626.67c15.52,0,25.51,9.77,25.51,30.4c0,20.63-9.99,30.4-25.51,30.4h-19.98
		c-15.52,0-25.3-9.77-25.3-30.4c0-20.63,9.77-30.4,25.3-30.4H1988.51z"/>
	<path class="st2" d="M2133.88,562.3v53.09h43.1c41.25,0,61.66,19.98,61.66,53.52v68.83h-24.86v-68.83
		c0-18.78-11.4-29.96-36.91-29.96h-43.1v98.79h-24.43V562.19L2133.88,562.3L2133.88,562.3z"/>
	<path class="st2" d="M2351.55,615.38c30.61,0,42.67,17.15,42.67,40.39v57.54c0,17.59-4.67,24.54-25.29,24.54h-57.21
		c-28.99,0-41.04-14.11-41.04-37.35c0-22.26,11.18-35.28,41.25-35.28h58.19v-9.23c0-9.55-5.32-16.94-18.78-16.94h-73.28v-23.67
		H2351.55z M2370.11,707.66v-22.91h-57.76c-13.03,0-17.59,5.32-17.59,14.33s4.89,14.87,17.15,14.87h51.46
		C2368.27,713.85,2370.11,712,2370.11,707.66z"/>
	<path class="st2" d="M2433.51,615.38v-10.86c0-32.03,10.86-42.23,36.15-42.23h22.04v22.47h-16.94c-11.62,0-16.5,4.67-16.5,18.35
		v12.27h33.87v23.67h-33.87v98.79h-24.75v-98.79h-16.72v-23.67L2433.51,615.38L2433.51,615.38z"/>
	<path class="st2" d="M2599.29,615.38v23.67h-43.1c-10.86,0-15.74,5.1-15.74,15.74v83.05h-24.54V651.1
		c0-24.54,9.01-35.72,33.11-35.72L2599.29,615.38L2599.29,615.38z"/>
	<path class="st2" d="M2648.14,569.24v28.55h-24.86v-28.55H2648.14z M2647.92,615.38v122.46h-24.54V615.38H2647.92z"/>
	<path class="st2" d="M2811.2,615.38l-73.71,171.53h-26.38l22.91-53.52c-13.9,0-18.78-4.45-22.91-15.09l-41.04-102.92h25.95
		l36.91,91.08c1.63,4.45,2.82,5.1,7.38,5.1h3.26l41.47-96.19L2811.2,615.38L2811.2,615.38z"/>
	<path class="st2" d="M2911.62,615.38c30.61,0,42.67,17.15,42.67,40.39v57.54c0,17.59-4.67,24.54-25.29,24.54h-57.32
		c-28.99,0-41.04-14.11-41.04-37.35c0-22.26,11.07-35.28,41.25-35.28h58.19v-9.23c0-9.55-5.32-16.94-18.78-16.94h-73.28v-23.67
		H2911.62z M2930.08,707.66v-22.91h-57.76c-13.03,0-17.59,5.32-17.59,14.33s4.89,14.87,17.15,14.87h51.46
		C2928.23,713.85,2930.08,712,2930.08,707.66z"/>
	<path class="st2" d="M2993.48,615.38V586.4h24.75v28.99h33.87v23.67h-33.87v57.97c0,13.68,4.89,18.35,16.5,18.35h16.94v22.47
		h-22.04c-25.3,0-36.15-10.2-36.15-42.23v-56.56h-16.72v-23.67H2993.48z"/>
</g>
<g>
	<g>
		<g>
			<path class="st3" d="M4003.94,605.7c0,0,88.21,196.56,309.04,222.4C4312.98,828.1,4020.41,929.5,4003.94,605.7z"/>
			<path class="st3" d="M4189.3,51.35c2.55-1.42-350.98,366.52-172.3,742.26C4017,793.61,3682.34,340.66,4189.3,51.35z"/>
			<path class="st3" d="M4108.9,692.06h376.95C4485.92,692.06,4343.85,906.15,4108.9,692.06z"/>
		</g>
	</g>
	<path id="XMLID_00000124152359501080385140000013363972076789809025_" class="st1" d="M4419.36,1.25
		c-25.48,0-50.38,2.34-74.51,6.81v79.62c23.99-5.54,48.89-8.44,74.51-8.44c183.22,0,332.31,149.09,332.31,332.24
		c0,115.81-59.61,218-149.73,277.53v-536.4h-85.72v200.04v81.39v295.27v80.75c179.6-43.64,313.37-205.79,313.37-398.66
		C4829.59,185.25,4645.51,1.25,4419.36,1.25z"/>
	<g>
		<g>
			<path class="st3" d="M4206.4,666.59h86.08V434.12h171.37v-81.39h-171.37v-74.16V93.43V12.74c-30.16,7.31-58.97,17.95-86.08,31.51
				v89.7V666.59z"/>
		</g>
	</g>
</g>
</svg>
