<?xml version="1.0" encoding="utf-8"?>
<!-- Generator: Adobe Illustrator 23.0.5, SVG Export Plug-In . SVG Version: 6.00 Build 0)  -->
<svg version="1.1" id="katman_1" xmlns="http://www.w3.org/2000/svg" xmlns:xlink="http://www.w3.org/1999/xlink" x="0px" y="0px"
	 viewBox="0 0 454 413.06" style="enable-background:new 0 0 454 413.06;" xml:space="preserve">
<style type="text/css">
	.st0{fill:#ECB500;}
	.st1{fill:#575756;}
</style>
<g>
	<g>
		<g>
			<path class="st0" d="M47.96,296.58c0,0,43.29,96.43,151.6,109.11C199.56,405.68,56.04,455.43,47.96,296.58z"/>
			<path class="st0" d="M138.87,24.58c1.24-0.71-172.2,179.82-84.53,364.17C54.35,388.75-109.82,166.51,138.87,24.58z"/>
			<path class="st0" d="M99.46,338.91h184.94C284.41,338.91,214.72,443.98,99.46,338.91z"/>
		</g>
	</g>
	<path id="XMLID_2_" class="st1" d="M251.76,0c-12.48,0-24.7,1.16-36.56,3.34v39.05c11.76-2.71,23.99-4.15,36.56-4.15
		c89.89,0,163.02,73.13,163.02,163.02c0,56.83-29.24,106.96-73.46,136.15V74.26h-42.06v98.15v39.93V357.2v39.62
		C387.38,375.41,453,295.85,453,201.24C453.01,90.28,362.73,0,251.76,0z"/>
	<g>
		<g>
			<path class="st0" d="M147.3,326.42h42.23V212.35h84.07v-39.93h-84.07v-36.35V45.25V5.63c-14.79,3.58-28.91,8.82-42.23,15.47v44
				V326.42z"/>
		</g>
	</g>
</g>
</svg>
